<?xml version="1.0" encoding="utf-8"?>
<!-- Generator: Adobe Illustrator 25.0.1, SVG Export Plug-In . SVG Version: 6.00 Build 0)  -->
<svg version="1.1" id="Layer_1" xmlns="http://www.w3.org/2000/svg" xmlns:xlink="http://www.w3.org/1999/xlink" x="0px" y="0px"
	 viewBox="0 0 769.5 154.3" style="enable-background:new 0 0 769.5 154.3;" xml:space="preserve">
<style type="text/css">
	.st0{fill:#39AAFF;}
</style>
<g>
	<path d="M0,49.6h11.5v5.8c3.2-4.2,8.2-6.9,14.4-6.9c7.9,0,13.3,3.2,16.3,8.7c3.4-5.2,9.3-8.7,16.5-8.7c13.7,0,20.5,7.9,20.5,21.1
		v30.3H67.3V70.5c0-7.3-3.7-12-10.9-12c-6.3,0-11.1,4.3-11.1,13.2v28.1H33.5V70.2c0-7.2-3.6-11.6-10.6-11.6
		c-6.5,0-11.4,4.5-11.4,13.4v27.9H0V49.6z"/>
	<path d="M107.9,97.4L87.3,49.6h12.4l14,33.9l13.2-33.9h12.2l-30,73.5H97.4L107.9,97.4z"/>
	<path class="st0" d="M155.6,74.7c0-16.7,12.2-26.2,24.9-26.2c6.5,0,12.4,2.6,16.1,7V36.2h11.7v63.6h-11.6v-6.5
		c-3.7,4.7-9.7,7.6-16.3,7.6C168.3,100.9,155.6,91.3,155.6,74.7z M197.3,74.6c0-8.6-6.4-15.5-15-15.5c-8.6,0-15.2,6.8-15.2,15.5
		c0,8.8,6.6,15.7,15.2,15.7C191,90.2,197.3,83.3,197.3,74.6z"/>
	<path class="st0" d="M217.6,74.7c0-14.7,11.5-26.2,26.1-26.2c14.4,0,26.1,11.5,26.1,26.2c0,14.4-11.6,26.1-26.1,26.1
		C229.1,100.9,217.6,89.2,217.6,74.7z M258.3,74.7c0-8.5-6.4-15.3-14.6-15.3c-8.3,0-14.6,6.8-14.6,15.3c0,8.3,6.3,15.2,14.6,15.2
		C251.9,90,258.3,83.1,258.3,74.7z"/>
	<path class="st0" d="M279.1,49.6h11.5v6.2c3.4-4.4,8.5-7.2,15-7.2c12.6,0,20,7.8,20,21.5v29.8h-11.8V71.2c0-7.8-3.8-12.6-11.4-12.6
		c-6.6,0-11.8,4.8-11.8,13.7v27.6h-11.6V49.6z"/>
	<path class="st0" d="M376.2,93.2c-3.7,4.8-9.6,7.7-16.4,7.7c-12.1,0-24.8-9.6-24.8-26.1c0-16.7,12.2-26.2,24.9-26.2
		c6.6,0,12.5,2.9,16.2,7.5v-6.5h11.6v49c0,14.1-9,25.6-26,25.6c-13.1,0-21.2-6.1-25.8-14.4l10.3-6.3c3.7,6.8,7.7,10.1,15.7,10.1
		c8.8,0,14.3-6.9,14.3-14.5V93.2z M376.7,74.6c0-8.6-6.4-15.5-15-15.5c-8.6,0-15.2,6.8-15.2,15.5c0,8.8,6.6,15.7,15.2,15.7
		C370.4,90.2,376.7,83.3,376.7,74.6z"/>
	<path class="st0" d="M399.2,49.6h11.5v5.8c3.2-4.2,8.2-6.9,14.4-6.9c7.9,0,13.3,3.2,16.3,8.7c3.4-5.2,9.3-8.7,16.5-8.7
		c13.7,0,20.5,7.9,20.5,21.1v30.3h-11.9V70.5c0-7.3-3.7-12-10.9-12c-6.3,0-11.1,4.3-11.1,13.2v28.1h-11.8V70.2
		c0-7.2-3.6-11.6-10.6-11.6c-6.5,0-11.4,4.5-11.4,13.4v27.9h-11.6V49.6z"/>
	<path class="st0" d="M505,97.4l-20.6-47.8h12.4l14,33.9L524,49.6h12.2l-30,73.5h-11.8L505,97.4z"/>
	<path class="st0" d="M538.7,74.7c0-14.7,11.5-26.2,26.1-26.2c14.4,0,26.1,11.5,26.1,26.2c0,14.4-11.6,26.1-26.1,26.1
		C550.3,100.9,538.7,89.2,538.7,74.7z M579.4,74.7c0-8.5-6.4-15.3-14.6-15.3c-8.3,0-14.6,6.8-14.6,15.3c0,8.3,6.3,15.2,14.6,15.2
		C573,90,579.4,83.1,579.4,74.7z"/>
	<path d="M605.9,49.6h8.6v-7.7l11.7-8v15.7h10.2V60h-10.2v18.8c0,8.8,1.3,10.1,10.2,10.1v10.9h-1.6c-15.6,0-20.3-5-20.3-21V60h-8.6
		V49.6z"/>
	<path d="M648.5,49.6H660V57c2.3-5,6.6-7.5,12.9-7.5c3.7,0,6.5,0.9,8.9,2.2l-4.4,11c-1.7-1.1-3.6-2-7-2c-6.8,0-10.3,3.6-10.3,12.3
		v26.8h-11.6V49.6z"/>
	<path d="M697.9,29.9c4.6,0,7.3,2.9,7.3,7.3c0,4.4-2.8,7.2-7.3,7.2c-4.7,0-7.3-2.8-7.3-7.2C690.6,32.9,693.4,29.9,697.9,29.9z
		 M692,49.6h11.7v50.3H692V49.6z"/>
	<path d="M728.4,93.9V123h-11.5V49.6h11.5v6.7c3.5-4.7,9.5-7.7,16.3-7.7c12.6,0,24.8,9.5,24.8,26.2c0,16.5-12.6,26.1-24.7,26.1
		C737.9,100.9,731.9,98.4,728.4,93.9z M758.1,74.6c0-8.7-6.6-15.5-15.1-15.5c-8.7,0-15,6.9-15,15.5c0,8.7,6.3,15.7,15,15.7
		C751.4,90.2,758.1,83.3,758.1,74.6z"/>
</g>
<polygon class="st0" points="407.7,35.9 396.7,35.9 436.7,0 447.7,0 "/>
<polygon class="st0" points="288.3,154.3 277.3,154.3 317.3,118.3 328.3,118.3 "/>
</svg>
